<svg width="180" height="180" viewBox="0 0 180 180" fill="none" xmlns="http://www.w3.org/2000/svg">
<rect width="180" height="180" fill="white"/>
<path d="M55 49.1204H71.5V67.9107L66.5133 84.5104L71.5 101.92V140.12H55V49.1204Z" fill="#111111"/>
<path fill-rule="evenodd" clip-rule="evenodd" d="M89.3987 116C108.867 116 124.649 100.554 124.649 81.5C124.649 62.4462 108.867 47 89.3987 47C77.0606 47 67.203 55.1616 60.9051 64.5562C58.8362 67.6423 60.3604 70.4401 62.0612 73.5621C63.3524 75.932 64.7452 78.4887 64.7452 81.5C64.7452 84.6023 63.6596 87.6089 62.627 90.4689C61.0512 94.8331 59.5988 98.8557 62.3159 102.355C68.7538 110.646 77.9375 116 89.3987 116ZM89.495 100.096C99.5742 100.096 107.745 91.7702 107.745 81.5C107.745 71.2298 99.5742 62.9042 89.495 62.9042C79.4158 62.9042 71.245 71.2298 71.245 81.5C71.245 91.7702 79.4158 100.096 89.495 100.096Z" fill="#111111"/>
<path d="M102 100.52H124.906V115.82H105.906L102 100.52Z" fill="#F2C94C"/>
</svg>
